M48
; DRILL file {KiCad 9.0.6} date 2026-09-28T17:39:01+0900
; FORMAT={-:-/ absolute / metric / decimal}
; #@! TF.CreationDate,2026-09-28T17:39:01+09:00
; #@! TF.GenerationSoftware,Kicad,Pcbnew,9.0.6
; #@! TF.FileFunction,Plated,1,2,PTH
FMAT,2
METRIC
; #@! TA.AperFunction,Plated,PTH,ViaDrill
T1C0.300
; #@! TA.AperFunction,Plated,PTH,ComponentDrill
T2C0.400
; #@! TA.AperFunction,Plated,PTH,ComponentDrill
T3C0.800
; #@! TA.AperFunction,Plated,PTH,ComponentDrill
T4C0.900
; #@! TA.AperFunction,Plated,PTH,ComponentDrill
T5C0.950
; #@! TA.AperFunction,Plated,PTH,ComponentDrill
T6C1.000
; #@! TA.AperFunction,Plated,PTH,ComponentDrill
T7C1.300
; #@! TA.AperFunction,Plated,PTH,ComponentDrill
T8C1.800
%
G90
G05
T1
X52.6Y-118.0
X52.8Y-92.2
X60.9Y-86.6
X61.8Y-85.2
X63.6Y-99.1
X63.7Y-65.7
X63.7Y-103.7
X64.9Y-87.3
X65.4Y-101.3
X70.1Y-99.3
X70.3Y-102.3
X70.4Y-95.9
X70.4Y-101.2
X70.8Y-95.2
X72.0Y-79.9
X72.7Y-89.2
X73.7Y-94.2
X74.0Y-99.3
X76.1Y-100.8
X81.7Y-99.6
X95.6Y-121.7
X96.8Y-117.4
X98.3Y-114.1
X107.5Y-89.6
X108.1Y-103.0
X108.8Y-114.8
X113.8Y-69.3
X116.3Y-90.1
X116.4Y-115.3
X116.9Y-103.6
X123.6Y-71.1
X141.2Y-78.8
T3
X55.193Y-70.78
X58.693Y-70.78
X63.04Y-76.0
X63.04Y-78.5
X67.42Y-64.0
X67.42Y-76.0
X67.5Y-70.0
X77.58Y-64.0
X77.58Y-76.0
X77.66Y-70.0
X103.653Y-130.5
X105.5Y-121.0
X107.153Y-130.5
X108.0Y-121.0
X113.5Y-121.0
X113.5Y-131.0
X116.0Y-121.0
X116.0Y-131.0
X129.5Y-68.318
X129.5Y-70.818
X137.0Y-68.068
X137.0Y-70.568
X148.96Y-123.28
X148.96Y-143.28
X149.04Y-103.28
X149.54Y-83.28
X159.12Y-123.28
X159.12Y-143.28
X159.2Y-103.28
X159.7Y-83.28
X171.04Y-83.28
X171.04Y-103.28
X171.04Y-123.28
X171.04Y-143.28
X181.2Y-83.28
X181.2Y-103.28
X181.2Y-123.28
X181.2Y-143.28
X192.96Y-143.28
X193.04Y-83.28
X193.04Y-103.28
X193.04Y-123.28
X203.12Y-143.28
X203.2Y-83.28
X203.2Y-103.28
X203.2Y-123.28
T4
X82.73Y-64.0
X82.73Y-70.0
X82.73Y-76.0
X85.27Y-64.0
X85.27Y-70.0
X85.27Y-76.0
X123.11Y-122.25
X123.8Y-134.0
X123.8Y-138.0
X123.8Y-142.0
X125.65Y-122.25
X126.5Y-134.0
X126.5Y-138.0
X126.5Y-142.0
X135.16Y-122.25
X135.5Y-134.0
X135.5Y-138.0
X135.5Y-142.0
X137.7Y-122.25
X138.2Y-134.0
X138.2Y-138.0
X138.2Y-142.0
T5
X150.54Y-71.28
X150.54Y-73.78
X150.54Y-76.28
X150.54Y-91.28
X150.54Y-93.78
X150.54Y-96.28
X150.54Y-111.28
X150.54Y-113.78
X150.54Y-116.28
X150.54Y-131.28
X150.54Y-133.78
X150.54Y-136.28
X160.54Y-71.28
X160.54Y-73.78
X160.54Y-76.28
X160.54Y-91.28
X160.54Y-93.78
X160.54Y-96.28
X160.54Y-111.28
X160.54Y-113.78
X160.54Y-116.28
X160.54Y-131.28
X160.54Y-133.78
X160.54Y-136.28
X172.54Y-71.28
X172.54Y-73.78
X172.54Y-76.28
X172.54Y-91.28
X172.54Y-93.78
X172.54Y-96.28
X172.54Y-111.28
X172.54Y-113.78
X172.54Y-116.28
X172.54Y-131.28
X172.54Y-133.78
X172.54Y-136.28
X182.54Y-71.28
X182.54Y-73.78
X182.54Y-76.28
X182.54Y-91.28
X182.54Y-93.78
X182.54Y-96.28
X182.54Y-111.28
X182.54Y-113.78
X182.54Y-116.28
X182.54Y-131.28
X182.54Y-133.78
X182.54Y-136.28
X194.54Y-71.28
X194.54Y-73.78
X194.54Y-76.28
X194.54Y-91.28
X194.54Y-93.78
X194.54Y-96.28
X194.54Y-111.28
X194.54Y-113.78
X194.54Y-116.28
X194.54Y-131.28
X194.54Y-133.78
X194.54Y-136.28
X204.54Y-71.28
X204.54Y-73.78
X204.54Y-76.28
X204.54Y-91.28
X204.54Y-93.78
X204.54Y-96.28
X204.54Y-111.28
X204.54Y-113.78
X204.54Y-116.28
X204.54Y-131.28
X204.54Y-133.78
X204.54Y-136.28
T6
X54.5Y-84.24
X54.5Y-86.78
X54.5Y-89.32
X54.5Y-91.86
X54.5Y-94.4
X54.5Y-96.94
X54.5Y-99.48
X54.5Y-102.02
X54.5Y-104.56
X54.5Y-107.1
X54.5Y-109.64
X54.5Y-112.18
X54.5Y-114.72
X54.5Y-117.26
X54.5Y-119.8
X54.5Y-122.34
X54.5Y-124.88
X54.5Y-127.42
X54.5Y-129.96
X54.5Y-132.5
X57.04Y-84.24
X57.04Y-86.78
X57.04Y-89.32
X57.04Y-91.86
X57.04Y-94.4
X57.04Y-96.94
X57.04Y-99.48
X57.04Y-102.02
X57.04Y-104.56
X57.04Y-107.1
X57.04Y-109.64
X57.04Y-112.18
X57.04Y-114.72
X57.04Y-117.26
X57.04Y-119.8
X57.04Y-122.34
X57.04Y-124.88
X57.04Y-127.42
X57.04Y-129.96
X57.04Y-132.5
T7
X72.5Y-110.7
X72.5Y-132.5
X80.25Y-55.5
X86.75Y-55.5
X90.0Y-110.6
X90.0Y-132.4
X130.0Y-58.5
X135.08Y-58.5
X143.08Y-58.5
X148.16Y-58.5
X155.08Y-58.5
X160.16Y-58.5
X167.08Y-58.5
X172.16Y-58.5
X179.08Y-58.5
X184.16Y-58.5
T8
X69.0Y-138.45
X69.0Y-145.55
X74.0Y-138.45
X74.0Y-145.55
X79.0Y-138.45
X79.0Y-145.55
X86.5Y-138.5
X86.5Y-145.6
X91.5Y-138.5
X91.5Y-145.6
X94.0Y-54.45
X94.0Y-61.55
X96.5Y-138.5
X96.5Y-145.6
X99.0Y-54.45
X99.0Y-61.55
X104.0Y-54.45
X104.0Y-61.55
X104.0Y-138.5
X104.0Y-145.6
X109.0Y-138.5
X109.0Y-145.6
X111.5Y-54.45
X111.5Y-61.55
X114.0Y-138.5
X114.0Y-145.6
X116.5Y-54.45
X116.5Y-61.55
X121.5Y-54.45
X121.5Y-61.55
T2
G00X124.35Y-129.75
M15
G01X125.95Y-129.75
M16
G05
G00X124.35Y-146.25
M15
G01X125.95Y-146.25
M16
G05
G00X136.05Y-129.75
M15
G01X137.65Y-129.75
M16
G05
G00X136.05Y-146.25
M15
G01X137.65Y-146.25
M16
G05
M30
