%TF.GenerationSoftware,KiCad,Pcbnew,9.0.6*%
%TF.CreationDate,2026-09-28T17:38:47+09:00*%
%TF.ProjectId,iris,69726973-2e6b-4696-9361-645f70636258,rev?*%
%TF.SameCoordinates,Original*%
%TF.FileFunction,Soldermask,Top*%
%TF.FilePolarity,Negative*%
%FSLAX46Y46*%
G04 Gerber Fmt 4.6, Leading zero omitted, Abs format (unit mm)*
G04 Created by KiCad (PCBNEW 9.0.6) date 2026-09-28 17:38:47*
%MOMM*%
%LPD*%
G01*
G04 APERTURE LIST*
G04 Aperture macros list*
%AMRoundRect*
0 Rectangle with rounded corners*
0 $1 Rounding radius*
0 $2 $3 $4 $5 $6 $7 $8 $9 X,Y pos of 4 corners*
0 Add a 4 corners polygon primitive as box body*
4,1,4,$2,$3,$4,$5,$6,$7,$8,$9,$2,$3,0*
0 Add four circle primitives for the rounded corners*
1,1,$1+$1,$2,$3*
1,1,$1+$1,$4,$5*
1,1,$1+$1,$6,$7*
1,1,$1+$1,$8,$9*
0 Add four rect primitives between the rounded corners*
20,1,$1+$1,$2,$3,$4,$5,0*
20,1,$1+$1,$4,$5,$6,$7,0*
20,1,$1+$1,$6,$7,$8,$9,0*
20,1,$1+$1,$8,$9,$2,$3,0*%
G04 Aperture macros list end*
%ADD10C,1.600000*%
%ADD11RoundRect,0.250000X0.725000X-0.600000X0.725000X0.600000X-0.725000X0.600000X-0.725000X-0.600000X0*%
%ADD12O,1.950000X1.700000*%
%ADD13O,3.000000X1.500000*%
%ADD14C,1.500000*%
%ADD15C,2.200000*%
%ADD16C,2.300000*%
%ADD17R,2.600000X2.600000*%
%ADD18C,2.600000*%
%ADD19R,1.700000X1.700000*%
%ADD20C,1.700000*%
%ADD21C,3.000000*%
%ADD22R,1.800000X1.800000*%
%ADD23C,1.800000*%
%ADD24RoundRect,0.250000X-0.550000X0.550000X-0.550000X-0.550000X0.550000X-0.550000X0.550000X0.550000X0*%
%ADD25RoundRect,0.250000X0.550000X0.550000X-0.550000X0.550000X-0.550000X-0.550000X0.550000X-0.550000X0*%
G04 APERTURE END LIST*
D10*
%TO.C,2.2k*%
X159120000Y-143280000D03*
X148960000Y-143280000D03*
%TD*%
D11*
%TO.C,sensor1*%
X150540000Y-136280000D03*
D12*
X150540000Y-133780000D03*
X150540000Y-131280000D03*
%TD*%
%TO.C,sensor2*%
X160540000Y-131280000D03*
X160540000Y-133780000D03*
D11*
X160540000Y-136280000D03*
%TD*%
D13*
%TO.C,SW_12V*%
X125150000Y-146250000D03*
X125150000Y-129750000D03*
D14*
X123800000Y-142000000D03*
X123800000Y-138000000D03*
X123800000Y-134000000D03*
X126500000Y-142000000D03*
X126500000Y-138000000D03*
X126500000Y-134000000D03*
%TD*%
D15*
%TO.C,RS*%
X80250000Y-55500000D03*
X86750000Y-55500000D03*
%TD*%
D13*
%TO.C,SW_5V*%
X136850000Y-146250000D03*
X136850000Y-129750000D03*
D14*
X135500000Y-142000000D03*
X135500000Y-138000000D03*
X135500000Y-134000000D03*
X138200000Y-142000000D03*
X138200000Y-138000000D03*
X138200000Y-134000000D03*
%TD*%
D11*
%TO.C,sensor24*%
X204540000Y-76280000D03*
D12*
X204540000Y-73780000D03*
X204540000Y-71280000D03*
%TD*%
D11*
%TO.C,sensor23*%
X194540000Y-76280000D03*
D12*
X194540000Y-73780000D03*
X194540000Y-71280000D03*
%TD*%
D11*
%TO.C,sensor22*%
X182540000Y-76280000D03*
D12*
X182540000Y-73780000D03*
X182540000Y-71280000D03*
%TD*%
D11*
%TO.C,sensor21*%
X172540000Y-76280000D03*
D12*
X172540000Y-73780000D03*
X172540000Y-71280000D03*
%TD*%
D11*
%TO.C,sensor20*%
X160540000Y-76280000D03*
D12*
X160540000Y-73780000D03*
X160540000Y-71280000D03*
%TD*%
D11*
%TO.C,sensor19*%
X150540000Y-76280000D03*
D12*
X150540000Y-73780000D03*
X150540000Y-71280000D03*
%TD*%
D11*
%TO.C,sensor18*%
X204540000Y-96280000D03*
D12*
X204540000Y-93780000D03*
X204540000Y-91280000D03*
%TD*%
D11*
%TO.C,sensor17*%
X194540000Y-96280000D03*
D12*
X194540000Y-93780000D03*
X194540000Y-91280000D03*
%TD*%
D11*
%TO.C,sensor16*%
X182540000Y-96280000D03*
D12*
X182540000Y-93780000D03*
X182540000Y-91280000D03*
%TD*%
D11*
%TO.C,sensor15*%
X172540000Y-96280000D03*
D12*
X172540000Y-93780000D03*
X172540000Y-91280000D03*
%TD*%
D11*
%TO.C,sensor14*%
X160540000Y-96280000D03*
D12*
X160540000Y-93780000D03*
X160540000Y-91280000D03*
%TD*%
D11*
%TO.C,sensor13*%
X150540000Y-96280000D03*
D12*
X150540000Y-93780000D03*
X150540000Y-91280000D03*
%TD*%
D11*
%TO.C,sensor12*%
X204540000Y-116280000D03*
D12*
X204540000Y-113780000D03*
X204540000Y-111280000D03*
%TD*%
D11*
%TO.C,sensor11*%
X194540000Y-116280000D03*
D12*
X194540000Y-113780000D03*
X194540000Y-111280000D03*
%TD*%
D11*
%TO.C,sensor10*%
X182540000Y-116280000D03*
D12*
X182540000Y-113780000D03*
X182540000Y-111280000D03*
%TD*%
D11*
%TO.C,sensor8*%
X160540000Y-116280000D03*
D12*
X160540000Y-113780000D03*
X160540000Y-111280000D03*
%TD*%
D11*
%TO.C,sensor7*%
X150540000Y-116280000D03*
D12*
X150540000Y-113780000D03*
X150540000Y-111280000D03*
%TD*%
D11*
%TO.C,sensor6*%
X204540000Y-136280000D03*
D12*
X204540000Y-133780000D03*
X204540000Y-131280000D03*
%TD*%
D11*
%TO.C,sensor5*%
X194540000Y-136280000D03*
D12*
X194540000Y-133780000D03*
X194540000Y-131280000D03*
%TD*%
D11*
%TO.C,sensor4*%
X182540000Y-136280000D03*
D12*
X182540000Y-133780000D03*
X182540000Y-131280000D03*
%TD*%
D11*
%TO.C,sensor3*%
X172540000Y-136280000D03*
D12*
X172540000Y-133780000D03*
X172540000Y-131280000D03*
%TD*%
D10*
%TO.C,1k*%
X77580000Y-76000000D03*
X67420000Y-76000000D03*
%TD*%
%TO.C,2.2k*%
X77660000Y-70000000D03*
X67500000Y-70000000D03*
%TD*%
%TO.C,1k*%
X77580000Y-64000000D03*
X67420000Y-64000000D03*
%TD*%
%TO.C,2.2k*%
X193040000Y-83280000D03*
X203200000Y-83280000D03*
%TD*%
%TO.C,2.2k*%
X171040000Y-83280000D03*
X181200000Y-83280000D03*
%TD*%
%TO.C,2.2k*%
X149540000Y-83280000D03*
X159700000Y-83280000D03*
%TD*%
%TO.C,2.2k*%
X193040000Y-103280000D03*
X203200000Y-103280000D03*
%TD*%
%TO.C,2.2k*%
X171040000Y-103280000D03*
X181200000Y-103280000D03*
%TD*%
%TO.C,2.2k*%
X149040000Y-103280000D03*
X159200000Y-103280000D03*
%TD*%
%TO.C,2.2k*%
X193040000Y-123280000D03*
X203200000Y-123280000D03*
%TD*%
%TO.C,2.2k*%
X171040000Y-123280000D03*
X181200000Y-123280000D03*
%TD*%
%TO.C,2.2k*%
X148960000Y-123280000D03*
X159120000Y-123280000D03*
%TD*%
%TO.C,2.2k*%
X192960000Y-143280000D03*
X203120000Y-143280000D03*
%TD*%
%TO.C,2.2k*%
X171040000Y-143280000D03*
X181200000Y-143280000D03*
%TD*%
D16*
%TO.C,J11*%
X104000000Y-138500000D03*
X109000000Y-138500000D03*
X114000000Y-138500000D03*
X104000000Y-145600000D03*
X109000000Y-145600000D03*
X114000000Y-145600000D03*
%TD*%
%TO.C,J10*%
X69000000Y-138450000D03*
X74000000Y-138450000D03*
X79000000Y-138450000D03*
X69000000Y-145550000D03*
X74000000Y-145550000D03*
X79000000Y-145550000D03*
%TD*%
%TO.C,\u96FB\u78C1\u5F01-*%
X111500000Y-54450000D03*
X116500000Y-54450000D03*
X121500000Y-54450000D03*
X111500000Y-61550000D03*
X116500000Y-61550000D03*
X121500000Y-61550000D03*
%TD*%
%TO.C,\u96FB\u78C1\u5F01+*%
X94000000Y-54450000D03*
X99000000Y-54450000D03*
X104000000Y-54450000D03*
X94000000Y-61550000D03*
X99000000Y-61550000D03*
X104000000Y-61550000D03*
%TD*%
D17*
%TO.C,J7*%
X179080000Y-58500000D03*
D18*
X184160000Y-58500000D03*
%TD*%
D17*
%TO.C,J6*%
X167080000Y-58500000D03*
D18*
X172160000Y-58500000D03*
%TD*%
D17*
%TO.C,J5*%
X155080000Y-58500000D03*
D18*
X160160000Y-58500000D03*
%TD*%
D17*
%TO.C,J4*%
X143080000Y-58500000D03*
D18*
X148160000Y-58500000D03*
%TD*%
D17*
%TO.C,\u30EA\u30EC\u30FC\u96FB\u6E90*%
X130000000Y-58500000D03*
D18*
X135080000Y-58500000D03*
%TD*%
D16*
%TO.C,J2*%
X86500000Y-138500000D03*
X91500000Y-138500000D03*
X96500000Y-138500000D03*
X86500000Y-145600000D03*
X91500000Y-145600000D03*
X96500000Y-145600000D03*
%TD*%
D19*
%TO.C,J1*%
X54500000Y-84240000D03*
D20*
X57040000Y-84240000D03*
X54500000Y-86780000D03*
X57040000Y-86780000D03*
X54500000Y-89320000D03*
X57040000Y-89320000D03*
X54500000Y-91860000D03*
X57040000Y-91860000D03*
X54500000Y-94400000D03*
X57040000Y-94400000D03*
X54500000Y-96940000D03*
X57040000Y-96940000D03*
X54500000Y-99480000D03*
X57040000Y-99480000D03*
X54500000Y-102020000D03*
X57040000Y-102020000D03*
X54500000Y-104560000D03*
X57040000Y-104560000D03*
X54500000Y-107100000D03*
X57040000Y-107100000D03*
X54500000Y-109640000D03*
X57040000Y-109640000D03*
X54500000Y-112180000D03*
X57040000Y-112180000D03*
X54500000Y-114720000D03*
X57040000Y-114720000D03*
X54500000Y-117260000D03*
X57040000Y-117260000D03*
X54500000Y-119800000D03*
X57040000Y-119800000D03*
X54500000Y-122340000D03*
X57040000Y-122340000D03*
X54500000Y-124880000D03*
X57040000Y-124880000D03*
X54500000Y-127420000D03*
X57040000Y-127420000D03*
X54500000Y-129960000D03*
X57040000Y-129960000D03*
X54500000Y-132500000D03*
X57040000Y-132500000D03*
%TD*%
D21*
%TO.C,F4*%
X90000000Y-132400000D03*
X90000000Y-110600000D03*
%TD*%
%TO.C,F3*%
X72500000Y-132500000D03*
X72500000Y-110700000D03*
%TD*%
D22*
%TO.C,NETWORK_LED*%
X85270000Y-76000000D03*
D23*
X82730000Y-76000000D03*
%TD*%
D22*
%TO.C,API_LED*%
X85270000Y-70000000D03*
D23*
X82730000Y-70000000D03*
%TD*%
D22*
%TO.C,DAEMON_LED*%
X85270000Y-64000000D03*
D23*
X82730000Y-64000000D03*
%TD*%
D22*
%TO.C,LED_5V*%
X137700000Y-122250000D03*
D23*
X135160000Y-122250000D03*
%TD*%
D22*
%TO.C,LED_12V*%
X125650000Y-122250000D03*
D23*
X123110000Y-122250000D03*
%TD*%
D10*
%TO.C,0.1\u00B5F*%
X137000000Y-68067621D03*
X137000000Y-70567621D03*
%TD*%
D24*
%TO.C,220uF*%
X129500000Y-68317621D03*
D10*
X129500000Y-70817621D03*
%TD*%
%TO.C,0.1\u00B5F*%
X63040000Y-76000000D03*
X63040000Y-78500000D03*
%TD*%
D25*
%TO.C,470uF*%
X58692651Y-70780000D03*
D10*
X55192651Y-70780000D03*
%TD*%
%TO.C,0.1\u00B5F*%
X116000000Y-121000000D03*
X113500000Y-121000000D03*
%TD*%
D25*
%TO.C,220\u00B5F*%
X116000000Y-131000000D03*
D10*
X113500000Y-131000000D03*
%TD*%
%TO.C,0.1\u00B5F*%
X108000000Y-121000000D03*
X105500000Y-121000000D03*
%TD*%
D25*
%TO.C,470\u00B5F*%
X107152651Y-130500000D03*
D10*
X103652651Y-130500000D03*
%TD*%
D11*
%TO.C,sensor9*%
X172540000Y-116280000D03*
D12*
X172540000Y-113780000D03*
X172540000Y-111280000D03*
%TD*%
M02*
